<svg width="177" height="120" viewBox="0 0 177 120" fill="none" xmlns="http://www.w3.org/2000/svg">
<g clip-path="url(#clip0_4_9)">
<path d="M64.9179 20.9962L86.6225 36.4888C87.1328 36.8553 87.5277 37.3606 87.7617 37.9465C87.9956 38.5324 88.059 39.1751 87.9447 39.8003C87.8683 40.2981 87.6714 40.771 87.3713 41.1773C86.9247 41.7954 86.2852 42.2466 85.5566 42.4573L64.8831 48.4702C64.3995 48.6102 63.8922 48.6396 63.3987 48.5564C62.9052 48.4732 62.4381 48.2795 62.0319 47.9895C61.6256 47.6995 61.2906 47.3207 61.0516 46.881C60.8125 46.4414 60.6755 45.952 60.6507 45.4492L59.6196 23.9437C59.5922 23.3162 59.7403 22.6912 60.0473 22.1394C60.3543 21.5877 60.8078 21.1312 61.3565 20.8219C61.9107 20.5105 62.539 20.3617 63.1691 20.3926C63.7993 20.4234 64.4055 20.6327 64.9179 20.9962Z" fill="#D6D5A8"/>
<path d="M38.8672 46.0174L25.1175 65.2802C23.8152 67.1048 23.2807 69.3647 23.6318 71.5629C23.9829 73.761 25.1908 75.7172 26.9896 77.0013L45.9812 90.5573C47.7801 91.8413 50.0226 92.3479 52.2155 91.9657C54.4085 91.5835 56.3721 90.3437 57.6745 88.5191L71.4242 69.2563C72.7265 67.4317 73.261 65.1718 72.9099 62.9736C72.5588 60.7755 71.3509 58.8193 69.5521 57.5352L50.5605 43.9792C48.7616 42.6952 46.5191 42.1886 44.3261 42.5708C42.1332 42.953 40.1696 44.1928 38.8672 46.0174ZM49.4862 59.828C49.0978 60.3723 48.5589 60.7907 47.9377 61.0305C47.3166 61.2702 46.6411 61.3205 45.9967 61.1749C45.3523 61.0293 44.7679 60.6944 44.3174 60.2126C43.8669 59.7307 43.5705 59.1236 43.4658 58.4679C43.3611 57.8122 43.4527 57.1375 43.729 56.5289C44.0054 55.9204 44.454 55.4054 45.0183 55.0492C45.5826 54.6929 46.2371 54.5114 46.8991 54.5275C47.5611 54.5436 48.2008 54.7566 48.7374 55.1396C49.457 55.6532 49.9401 56.4357 50.0805 57.315C50.221 58.1942 50.0072 59.0982 49.4862 59.828Z" fill="#D6D5A8"/>
</g>
<path d="M67.8949 83.0926C67.8949 78.7406 68.8762 74.8366 70.8389 71.3806C72.8015 67.8819 75.4682 65.1512 78.8389 63.1886C82.2522 61.2259 86.0282 60.2446 90.1669 60.2446C95.0309 60.2446 99.2762 61.4179 102.903 63.7646C106.53 66.1112 109.175 69.4392 110.839 73.7486H103.863C102.626 71.0606 100.834 68.9912 98.4869 67.5406C96.1829 66.0899 93.4095 65.3646 90.1669 65.3646C87.0522 65.3646 84.2575 66.0899 81.7829 67.5406C79.3082 68.9912 77.3669 71.0606 75.9589 73.7486C74.5509 76.3939 73.8469 79.5086 73.8469 83.0926C73.8469 86.6339 74.5509 89.7486 75.9589 92.4366C77.3669 95.0819 79.3082 97.1299 81.7829 98.5806C84.2575 100.031 87.0522 100.757 90.1669 100.757C93.4095 100.757 96.1829 100.053 98.4869 98.6446C100.834 97.1939 102.626 95.1246 103.863 92.4366H110.839C109.175 96.7032 106.53 100.01 102.903 102.357C99.2762 104.661 95.0309 105.813 90.1669 105.813C86.0282 105.813 82.2522 104.853 78.8389 102.933C75.4682 100.97 72.8015 98.2606 70.8389 94.8046C68.8762 91.3486 67.8949 87.4446 67.8949 83.0926Z" fill="#F15412"/>
<path d="M130.072 72.696V75.064H120.376V82.584H128.248V84.952H120.376V95H117.464V72.696H130.072ZM136.501 71.32V95H133.589V71.32H136.501ZM142.968 74.616C142.413 74.616 141.944 74.424 141.56 74.04C141.176 73.656 140.984 73.1867 140.984 72.632C140.984 72.0773 141.176 71.608 141.56 71.224C141.944 70.84 142.413 70.648 142.968 70.648C143.501 70.648 143.949 70.84 144.312 71.224C144.696 71.608 144.888 72.0773 144.888 72.632C144.888 73.1867 144.696 73.656 144.312 74.04C143.949 74.424 143.501 74.616 142.968 74.616ZM144.376 77.464V95H141.464V77.464H144.376ZM158.491 95L154.331 88.472L150.331 95H147.291L152.955 86.296L147.291 77.464H150.587L154.747 83.96L158.715 77.464H161.755L156.123 86.136L161.787 95H158.491Z" fill="#D6D5A8"/>
<defs>
<clipPath id="clip0_4_9">
<rect width="81.1429" height="80" fill="white" transform="translate(0 66.044) rotate(-54.481)"/>
</clipPath>
</defs>
</svg>
